HIERARCHY
ROOT RootJoint
{
    OFFSET   0.000000   0.000000   0.000000
    CHANNELS 6 Xposition Yposition Zposition Xrotation Yrotation Zrotation
    JOINT pelvis_lowerback
    {
        OFFSET   0.000000   0.093605   0.000000
        CHANNELS 3 Xrotation Yrotation Zrotation
        JOINT lowerback_torso
        {
            OFFSET   0.000000   0.100000   0.000000
            CHANNELS 3 Xrotation Yrotation Zrotation
            JOINT torso_head
            {
                OFFSET   0.000000   0.282350   0.000000
                CHANNELS 3 Xrotation Yrotation Zrotation
                End Site
                {
                    OFFSET   0.000000   0.192650   0.000000
                }
            }
            JOINT rTorso_Clavicle
            {
                OFFSET  -0.001000   0.157500   0.000000
                CHANNELS 3 Xrotation Yrotation Zrotation
                JOINT rShoulder
                {
                    OFFSET  -0.117647   0.000000   0.000000
                    CHANNELS 3 Xrotation Yrotation Zrotation
                    JOINT rElbow
                    {
                        OFFSET  -0.245000   0.000000   0.000000
                        CHANNELS 3 Xrotation Yrotation Zrotation
                        JOINT rWrist
                        {
                            OFFSET  -0.240000   0.000000   0.000000
                            CHANNELS 3 Xrotation Yrotation Zrotation
                            End Site
                            {
                                OFFSET  -0.116353  -0.002500   0.000000
                            }
                        }
                    }
                }
            }
            JOINT lTorso_Clavicle
            {
                OFFSET   0.001000   0.157500   0.000000
                CHANNELS 3 Xrotation Yrotation Zrotation
                JOINT lShoulder
                {
                    OFFSET   0.117647   0.000000   0.000000
                    CHANNELS 3 Xrotation Yrotation Zrotation
                    JOINT lElbow
                    {
                        OFFSET   0.245000   0.000000   0.000000
                        CHANNELS 3 Xrotation Yrotation Zrotation
                        JOINT lWrist
                        {
                            OFFSET   0.240000   0.000000   0.000000
                            CHANNELS 3 Xrotation Yrotation Zrotation
                            End Site
                            {
                                OFFSET   0.116353  -0.002500   0.000000
                            }
                        }
                    }
                }
            }
        }
    }
    JOINT rHip
    {
        OFFSET  -0.100000  -0.051395   0.000000
        CHANNELS 3 Xrotation Yrotation Zrotation
        JOINT rKnee
        {
            OFFSET   0.000000  -0.410000   0.000000
            CHANNELS 3 Xrotation Yrotation Zrotation
            JOINT rAnkle
            {
                OFFSET   0.000000  -0.390000   0.000000
                CHANNELS 3 Xrotation Yrotation Zrotation
                JOINT rToeJoint
                {
                    OFFSET   0.000000  -0.050000   0.130000
                    CHANNELS 3 Xrotation Yrotation Zrotation
                    End Site
                    {
                        OFFSET  -0.010000   0.002000   0.060000
                    }
                }
            }
        }
    }
    JOINT lHip
    {
        OFFSET   0.100000  -0.051395   0.000000
        CHANNELS 3 Xrotation Yrotation Zrotation
        JOINT lKnee
        {
            OFFSET   0.000000  -0.410000   0.000000
            CHANNELS 3 Xrotation Yrotation Zrotation
            JOINT lAnkle
            {
                OFFSET   0.000000  -0.390000   0.000000
                CHANNELS 3 Xrotation Yrotation Zrotation
                JOINT lToeJoint
                {
                    OFFSET   0.000000  -0.050000   0.130000
                    CHANNELS 3 Xrotation Yrotation Zrotation
                    End Site
                    {
                        OFFSET   0.010000   0.002000   0.060000
                    }
                }
            }
        }
    }
}
MOTION
Frames: 15
Frame Time:   0.008333
 -2.376719   0.925631   3.975860   0.000000   0.000000   0.000000   0.000000   0.000000   0.000000   0.000000   0.000000   0.000000   0.000000   0.000000   0.000000   0.000000   0.000000   0.000000   0.000000   0.000000   0.000000   0.000000   0.000000   0.000000   0.000000   0.000000   0.000000   0.000000   0.000000   0.000000   0.000000   0.000000   0.000000   0.000000   0.000000   0.000000   0.000000   0.000000   0.000000   0.000000   0.000000   0.000000   0.000000   0.000000   0.000000   0.000000   0.000000   0.000000   0.000000   0.000000   0.000000   0.000000   0.000000   0.000000   0.000000   0.000000   0.000000   0.000000   0.000000   0.000000   0.000000   0.000000   0.000000
 -2.376069   0.925934   3.976044  -0.871486   0.840370   0.042545   0.955037  -0.039614   0.023829   0.211294  -0.204998   0.170372   0.023356   0.870460  -0.305073   0.212168  -0.827288  -0.275354   0.460378   0.065330   2.325507   0.022052   1.109243  -0.009581   0.266662  -0.533986  -2.601459  -0.114429  -0.303362  -0.001020   0.620075  -0.305134  -2.384853   0.019006  -1.001027   0.007184   0.257618   0.568663   2.241631   1.141592   0.549986  -0.164427   0.553165   0.000686   0.006714  -0.391250   0.010327   0.040873   0.319791   0.000261   0.003912   0.249306  -0.867449  -0.116262   1.222930   0.000821  -0.000300   0.691115  -1.004352  -0.382569   0.615767   0.002501  -0.005537
 -2.375156   0.926878   3.976175  -1.766522   2.132174   0.191454   1.860185  -0.168506   0.041452   0.511511  -0.545506   0.354951   0.097959   1.730923  -0.593695   0.427052  -1.684415   0.102175   0.906902   0.119057   5.152795   0.050047   2.162855  -0.016989   0.551066  -0.847574  -4.565253  -0.226326  -0.755745  -0.642618   1.209096  -0.787043  -5.275083   0.044327  -2.014227   0.013041   0.546018   0.689947   3.774512   2.486200   1.107811  -0.445955   1.267592   0.001989   0.016922  -0.748594   0.028537   0.079435   0.624506   0.000668   0.008110   0.407895  -1.588931  -0.242063   2.495878   0.000765   0.006080   1.046351  -1.819632  -0.626750  -1.688932  -0.003444   0.000383
 -2.374007   0.928010   3.976194  -2.594501   3.491041   0.387292   2.693539  -0.275420   0.110837   0.798653  -0.888354   0.557307   0.176717   2.540703  -0.861856   0.644506  -2.466889   0.885902   1.338058   0.211643   8.300797   0.077414   3.150266  -0.022420   0.819716  -1.088171  -5.803718  -0.347431  -1.245958  -1.680019   1.757019  -1.351476  -8.488217   0.069172  -2.985388   0.016904   0.837954   0.603439   4.586409   3.873091   1.643379  -0.755694   2.024335   0.003569   0.026088  -1.077695   0.049575   0.116689   0.912611   0.001110   0.011327   0.467150  -2.337083  -0.407465   3.668978   0.001014   0.011104   1.446366  -2.684821  -0.907138  -3.156903  -0.007352   0.003151
 -2.372690   0.929060   3.975991  -3.364423   4.689468   0.586601   3.491564  -0.297544   0.243082   1.070715  -1.154960   0.788888   0.248848   3.299723  -1.109881   0.862830  -3.134523   1.976460   1.729796   0.364012  11.507741   0.100928   4.084876  -0.026523   1.078575  -1.244838  -6.411661  -0.474851  -1.722377  -3.009194   2.235733  -1.930159 -11.760988   0.089603  -3.900510   0.019037   1.122886   0.436037   4.787774   5.180511   2.061839  -1.117101   2.613590   0.004929   0.029203  -1.486592  -0.023308   0.135123  -0.218005  -0.002406  -0.006297   0.460810  -3.035508  -0.569313   4.738422   0.001277   0.013535   1.849851  -3.500627  -1.174037  -4.199253  -0.009250   0.004942
 -2.371322   0.929805   3.975634  -4.097258   5.845990   0.803546   4.260227  -0.302528   0.404715   1.337812  -1.383737   1.045497   0.318561   4.007457  -1.338401   1.079401  -3.711016   3.252935   2.081579   0.560490  14.686048   0.119199   4.967983  -0.029599   1.331724  -1.325958  -6.578080  -0.607775  -2.181468  -4.489753   2.648618  -2.512196 -14.987756   0.104491  -4.760012   0.019776   1.396807   0.232029   4.584869   6.424544   2.501134  -1.458908   3.144753   0.005881   0.030780  -1.868611  -0.021231   0.179428  -1.213776  -0.004059  -0.019179   0.397677  -3.711970  -0.750266   5.728926   0.001582   0.014951   2.230565  -4.286973  -1.430478  -5.092559  -0.010386   0.005882
 -2.369933   0.930122   3.975162  -4.801574   6.966373   1.046506   4.998834  -0.287173   0.586394   1.600128  -1.578159   1.317360   0.387529   4.667397  -1.551260   1.291224  -4.212512   4.624888   2.394254   0.788176  17.779338   0.132001   5.800609  -0.031831   1.579450  -1.348540  -6.454223  -0.744906  -2.615349  -6.031576   3.001780  -3.086551 -18.112529   0.113892  -5.565293   0.019389   1.657905   0.011967   4.133079   7.597196   2.916584  -1.778121   3.619589   0.006415   0.031019  -2.239068  -0.008506   0.228009  -2.291041  -0.004881  -0.030297   0.298596  -4.355117  -0.963492   6.644561   0.001922   0.015730   2.572939  -5.036889  -1.672355  -6.027310  -0.011472   0.006411
 -2.368683   0.929468   3.974093  -5.135617   7.812382   1.279480   5.478160  -0.064777   0.738795   1.725614  -1.711966   1.565678   0.433903   5.141117  -1.774045   1.511214  -4.549043   5.596372   2.814117   1.082785  20.631817   0.129216   6.414162  -0.032529   1.699267  -1.256573  -5.447192  -0.780296  -2.954493  -6.876793   3.353285  -3.739845 -21.464835   0.117804  -6.350646   0.019365   1.816154  -0.259467   3.115853   8.247139   3.357447  -2.119209   4.026855   0.006522   0.029404  -2.956926   0.165297   0.108444  -2.690178  -0.004887  -0.029514  -0.252761  -4.872559  -1.203137   7.631971   0.001984   0.015300   2.786297  -5.896848  -1.546039  -7.347336  -0.009371   0.011051
 -2.367572   0.928111   3.972771  -5.430328   8.513409   1.527163   5.967899   0.213297   0.872939   1.839341  -1.769413   1.786282   0.469349   5.577652  -1.983124   1.702619  -4.802753   6.366895   3.179877   1.410160  23.197608   0.123204   6.995709  -0.032893   1.815393  -1.150520  -4.499141  -0.818940  -3.259851  -7.546339   3.648425  -4.359252 -24.524481   0.116397  -7.083565   0.018674   1.963991  -0.534332   2.113569   8.776945   3.752365  -2.465288   4.297254   0.006072   0.026128  -3.668894   0.313146   0.001242  -3.536923  -0.005671  -0.033249  -0.810049  -5.364243  -1.455376   8.548564   0.001784   0.013795   2.929928  -6.711374  -1.427240  -9.181142  -0.007856   0.018420
 -2.366520   0.927071   3.971139  -5.682897   9.149150   1.924983   6.457932   0.503253   0.892241   1.956404  -1.787563   1.937195   0.504494   5.984034  -2.182732   1.866710  -5.001728   7.053511   3.495743   1.755195  25.548253   0.115842   7.547993  -0.033011   1.930557  -1.012153  -3.729831  -0.862316  -3.542169  -8.143302   3.892869  -4.946373 -27.337855   0.112081  -7.765058   0.017524   2.100989  -0.784390   1.267250   9.185886   4.090028  -2.964108   4.503484   0.005498   0.022710  -4.317149   0.417940  -0.112362  -4.123756  -0.005696  -0.032582  -1.269519  -5.820775  -1.897852   9.527069   0.001924   0.012352   2.655152  -7.480063  -1.270875  -9.065370  -0.006265   0.014122
 -2.365672   0.926096   3.969256  -5.909482   9.823601   2.307146   6.945394   0.774720   0.943291   2.081340  -1.796782   2.076309   0.542244   6.361980  -2.369995   2.011380  -5.170957   7.627866   3.771208   2.099491  27.697657   0.107562   8.069024  -0.032892   2.042350  -0.851505  -3.076672  -0.911235  -3.809804  -8.663848   4.091958  -5.507138 -29.942503   0.105887  -8.402541   0.016010   2.228819  -1.024153   0.506869   9.521036   4.388827  -3.427922   4.694974   0.004977   0.019842  -4.919290   0.500039  -0.223676  -4.567621  -0.005342  -0.030503  -1.714593  -6.250132  -2.322212  10.351674   0.001961   0.011428   2.501928  -8.203550  -1.149875  -9.003284  -0.004993   0.011027
 -2.365045   0.925133   3.967204  -6.128012  10.549394   2.670555   7.427806   1.030482   1.013319   2.216178  -1.801270   2.216375   0.582880   6.713988  -2.541361   2.141699  -5.323008   8.110786   4.013515   2.432638  29.665861   0.098814   8.557465  -0.032504   2.149463  -0.686378  -2.525043  -0.963953  -4.060118  -9.114046   4.252933  -6.037528 -32.350118   0.098538  -8.997959   0.014163   2.348578  -1.253334  -0.174437   9.819680   4.663995  -3.853176   4.870216   0.004505   0.017444  -5.481532   0.573128  -0.327584  -4.958697  -0.004879  -0.028367  -2.158063  -6.649604  -2.725009  11.103386   0.001983   0.011053   2.401941  -8.883143  -1.049472  -8.957797  -0.003979   0.008671
 -2.364689   0.924275   3.965016  -6.357444  11.343676   2.992539   7.911534   1.268832   1.114118   2.363018  -1.804239   2.368854   0.625357   7.041917  -2.697446   2.260421  -5.462898   8.524983   4.227840   2.750252  31.473691   0.089996   9.013392  -0.031886   2.250970  -0.529430  -2.059585  -1.019417  -4.293717  -9.507731   4.381606  -6.536421 -34.577123   0.090644  -9.553243   0.012073   2.460766  -1.467486  -0.778988  10.062449   4.949600  -4.172255   4.917414   0.003731   0.014408  -6.133814   0.671783  -0.381453  -4.206595  -0.003438  -0.014508  -2.589345  -7.019180  -3.077501  11.804760   0.002016   0.011213   2.371055  -9.516559  -0.966236  -8.964270  -0.003187   0.006949
 -2.364782   0.923399   3.962839  -6.443968  12.116941   3.185280   8.188879   1.523010   1.223452   2.478365  -1.816346   2.574960   0.639286   7.153998  -2.777469   2.284517  -5.532622   8.678980   4.347119   2.907759  32.840630   0.081288   9.551567  -0.031145   2.245978  -0.391930  -0.997262  -0.995674  -4.358923  -9.626339   4.498364  -7.021135 -36.546688   0.084236 -10.248518   0.009752   2.575654  -1.640050  -1.712940  10.038977   4.843056  -4.272561   5.164338   0.003322   0.012962  -6.938654   0.575960  -0.593149  -3.404286  -0.001321  -0.007369  -3.007153  -7.280808  -3.308030  12.245071   0.001942   0.010792   2.318616 -10.040710  -0.709135  -8.755773  -0.002848   0.005428
 -2.365223   0.922541   3.960710  -6.501811  12.973505   3.365349   8.402485   1.750616   1.304534   2.547299  -1.826325   2.758970   0.644691   7.247731  -2.840328   2.300481  -5.605931   8.627131   4.455497   3.042152  33.972044   0.071437  10.053884  -0.030011   2.232474  -0.255738  -0.138442  -0.975003  -4.394661  -9.575533   4.600991  -7.453745 -38.272370   0.076141 -10.895928   0.006863   2.684826  -1.821218  -2.492991  10.058454   4.740145  -4.250721   5.510973   0.002831   0.012681  -7.654122   0.517985  -0.781755  -2.686873  -0.000575  -0.001430  -3.415823  -7.524471  -3.517494  12.588312   0.001824   0.010356   2.296052 -10.522356  -0.462377  -8.518412  -0.002642   0.004489
